<svg xmlns="http://www.w3.org/2000/svg" width="244" height="34" fill="none"><g fill="#fff" clip-path="url(#a)"><path d="M171.984 2.49h-.485V33.1h.485V2.49ZM73.748 1.842c-9.785 0-14.169 8.341-14.169 16.612v.976c.027 6.773.497 14.104 7.051 14.104 2.377 0 4.835-1.588 4.835-4.53-.886-1.102-1.057-4.325-1.053-9.487v-1.063c0-.099.101-10.009 3.759-10.009 1.386 0 2.213 1.363 2.213 3.642 0 .948-.085 1.667-.237 2.35 1.091 1.355 3.114 2.402 4.788 2.402 3.623 0 5.622-1.987 5.622-5.597 0-7.433-8.379-9.4-12.81-9.4ZM42.778 1.688c-9.405 0-14.06 6.513-14.06 15.964 0 9.452 4.372 15.91 14.06 15.91 9.687 0 14.118-6.225 14.118-15.91 0-9.684-4.827-15.965-14.118-15.965Zm0 23.793c-2.715 0-3.938-2.959-3.938-7.809s1.305-7.84 3.938-7.84c2.632 0 3.952 3.187 3.952 7.84 0 4.653-1.238 7.809-3.952 7.809ZM163.624 19.517v-1.063c0-5.04-.621-16.656-10.791-16.656-3.164 0-5.82 1.043-8.251 4.005l-.559.684-.609-.632c-2.893-2.998-5.735-4.057-10.131-4.057-11.897 0-13.644 10.392-13.644 16.656v.976c.027 6.774.497 14.104 7.051 14.104 2.376 0 4.834-1.587 4.834-4.53-.885-1.102-1.056-4.325-1.052-9.487v-1.063c0-2.456.279-8.168 2.869-8.168 3.596 0 3.343 7.635 3.343 8.172v.976c.028 6.774.439 14.018 6.112 14.104 2.376.036 4.834-1.587 4.834-4.53-.885-1.102-1.056-4.325-1.052-9.487v-1.73c0-1.762.206-7.505 2.866-7.505 3.595 0 3.343 7.576 3.343 8.168v.976c.027 6.774.497 14.104 7.051 14.104 2.376 0 4.834-1.587 4.834-4.53-.885-1.102-1.056-4.325-1.052-9.487h.004ZM4.461 29.573C1.503 26.757 0 22.543 0 17.048 0 7.418 5.273 1.672 14.107 1.672c4.43 0 12.813 1.963 12.813 9.4 0 3.61-1.996 5.597-5.622 5.597-1.678 0-3.705-1.047-4.796-2.405.183-.861.241-1.695.241-2.346 0-2.28-.827-3.642-2.213-3.642-3.673 0-3.759 8.681-3.759 8.768-.02 3.93 1.184 6.746 3.576 8.378 3.39 2.31 8.244 1.528 10.678.833-.633 5.87-5.413 7.208-9.497 7.208-.117.008-6.566.391-11.07-3.89h.003ZM116.125 18.075c0-9.83-3.851-16.245-13.687-16.245-9.835 0-14.137 6.785-14.137 16.443 0 7.125 3.525 14.404 10.46 15.072 3.58.347 5.673-.9 7.84-3.78 0 0 1.506 4.755 6.795 3.882 3.79-.624 3.774-4.44 3.774-4.44-1.363-1.745-1.048-9.779-1.048-10.928l.003-.004Zm-13.85 7.512c-2.714 0-3.937-2.958-3.937-7.812s1.305-7.84 3.937-7.84c2.633 0 3.953 3.187 3.953 7.84 0 4.653-1.239 7.813-3.953 7.813ZM181.928 9.469c-.636 0-1.238-.158-1.65-.403-.349-.21-.349-.443-.349-.688V1.301c0-.222.12-.332.372-.332.253 0 .362.11.362.332v3.124c.396-.344.889-.502 1.479-.502 1.468 0 2.454 1.043 2.454 2.733 0 1.69-1.048 2.817-2.671 2.817l.003-.004Zm0-.624c1.181 0 1.903-.834 1.903-2.157 0-1.248-.664-2.145-1.829-2.145a1.98 1.98 0 0 0-1.336.49v3.44c.327.233.796.368 1.266.368l-.004.004ZM189.741 8.56c0 .123-.121.269-.327.415-.446.332-.986.502-1.626.502-1.589 0-2.528-1.067-2.528-2.781 0-1.714.928-2.804 2.361-2.804 1.432 0 2.217 1.003 2.217 2.373 0 .526-.156.589-.505.589h-3.335c.073 1.189.663 1.97 1.817 1.97.419 0 .854-.098 1.203-.367.195-.134.288-.244.408-.244.194 0 .315.181.315.343v.004Zm-3.732-2.279h3.095c0-1.054-.544-1.789-1.491-1.789-.948 0-1.491.7-1.6 1.79h-.004ZM194.039 8.88c0 .122-.074.221-.229.332a2.103 2.103 0 0 1-1.025.268c-.649 0-1.119-.268-1.348-.71-.217-.415-.229-.905-.229-1.458V4.705h-.784c-.218 0-.326-.11-.326-.32 0-.21.108-.32.326-.32h.784V2.62c0-.222.121-.332.373-.332s.361.11.361.332v1.445h1.456c.218 0 .326.11.326.32 0 .21-.108.32-.326.32h-1.456v2.607c0 .38 0 .798.155 1.09.132.257.373.427.758.427.24 0 .481-.075.636-.17.121-.063.206-.11.276-.11.179 0 .264.209.264.33h.008ZM197.732 8.916c0 .098-.074.209-.229.308a1.994 1.994 0 0 1-.998.256c-.579 0-1.049-.233-1.278-.675-.217-.403-.229-.869-.229-1.422V4.701h-.78c-.218 0-.326-.11-.326-.32 0-.21.108-.32.326-.32h.78V2.616c0-.221.121-.332.373-.332s.361.11.361.332V4.06h1.53c.217 0 .326.11.326.32 0 .21-.109.32-.326.32h-1.53v2.682c0 .367 0 .782.144 1.066.132.233.361.38.722.38.229 0 .435-.075.59-.147.121-.063.194-.11.264-.11.194 0 .276.221.276.344h.004ZM202.5 8.56c0 .123-.12.269-.326.415-.446.332-.986.502-1.627.502-1.588 0-2.527-1.067-2.527-2.781 0-1.714.928-2.804 2.36-2.804 1.433 0 2.217 1.003 2.217 2.373 0 .526-.155.589-.504.589h-3.336c.074 1.189.664 1.97 1.817 1.97.42 0 .855-.098 1.204-.367.194-.134.287-.244.408-.244.194 0 .314.181.314.343v.004Zm-3.731-2.279h3.095c0-1.054-.544-1.789-1.491-1.789-.948 0-1.491.7-1.6 1.79h-.004ZM204.364 9.101c0 .222-.121.332-.361.332-.253 0-.373-.11-.373-.332V4.287c0-.222.109-.332.361-.332s.349.122.338.332v.758c.349-.723.939-1.114 1.759-1.114.275 0 .361.099.361.344 0 .268-.132.332-.435.343-.819.024-1.312.356-1.65 1.126v3.357ZM211.465 8.817a1.77 1.77 0 0 0 1.072-.355c.179-.135.252-.233.373-.233.182 0 .326.17.326.331 0 .162-.144.304-.287.415-.385.32-.917.502-1.507.502-1.456 0-2.504-1.114-2.504-2.793 0-1.678 1.036-2.78 2.504-2.78.528 0 1.072.146 1.491.477.206.147.303.28.303.403 0 .158-.132.356-.326.356-.109 0-.179-.099-.373-.233-.303-.21-.637-.356-1.083-.356-1.072 0-1.748.857-1.748 2.106 0 1.248.676 2.156 1.759 2.156v.004ZM218.556 9.101c0 .221-.121.332-.361.332-.253 0-.373-.11-.373-.332V6.174c0-.402-.062-.81-.276-1.113-.229-.32-.59-.478-1.083-.478-.746 0-1.266.379-1.53.821v3.697c0 .221-.12.332-.361.332-.252 0-.373-.11-.373-.332v-7.8c0-.222.121-.332.373-.332s.361.11.361.332v3.463c.303-.477.905-.845 1.732-.845.648 0 1.215.21 1.541.687.229.344.35.822.35 1.458V9.1ZM221.611 4.555c-.47 0-.831.123-1.169.332-.182.122-.264.21-.372.21-.194 0-.315-.21-.315-.356 0-.123.097-.245.35-.403.419-.269.939-.427 1.564-.427.758 0 1.301.233 1.6.676.206.292.303.723.303 1.323v3.195c0 .221-.097.332-.349.332-.229 0-.338-.087-.338-.257v-.379c-.435.454-.986.676-1.674.676-1.106 0-1.72-.613-1.72-1.493 0-1.114 1.014-1.667 3.359-1.849v-.197c0-.905-.338-1.371-1.239-1.371v-.012Zm-1.324 3.37c0 .513.35.92 1.13.92.532 0 1.014-.198 1.433-.577V6.64c-1.794.181-2.563.513-2.563 1.287v-.004ZM225.645 4.287v.501c.315-.49.917-.869 1.771-.869.648 0 1.215.21 1.541.687.229.344.35.822.35 1.458V9.1c0 .221-.121.332-.361.332-.241 0-.373-.11-.373-.332V6.174c0-.402-.058-.81-.276-1.113-.229-.32-.59-.478-1.083-.478-.746 0-1.262.379-1.53.821v3.697c0 .221-.12.332-.361.332-.252 0-.373-.11-.373-.332V4.287c0-.222.109-.332.361-.332.253 0 .35.122.338.332h-.004ZM232.793 8.817c.396 0 .758-.122 1.072-.355.179-.135.252-.233.373-.233.182 0 .326.17.326.331 0 .162-.144.304-.287.415-.385.32-.917.502-1.507.502-1.456 0-2.504-1.114-2.504-2.793 0-1.678 1.036-2.78 2.504-2.78.528 0 1.072.146 1.491.477.206.147.303.28.303.403 0 .158-.132.356-.326.356-.109 0-.179-.099-.373-.233-.303-.21-.637-.356-1.083-.356-1.072 0-1.748.857-1.748 2.106 0 1.248.676 2.156 1.759 2.156v.004ZM239.499 8.56c0 .123-.12.269-.326.415-.446.332-.986.502-1.627.502-1.588 0-2.527-1.067-2.527-2.781 0-1.714.928-2.804 2.36-2.804 1.433 0 2.217 1.003 2.217 2.373 0 .526-.155.589-.504.589h-3.336c.074 1.189.664 1.97 1.817 1.97.42 0 .855-.098 1.204-.367.194-.134.288-.244.408-.244.194 0 .314.181.314.343v.004Zm-3.731-2.279h3.095c0-1.054-.54-1.789-1.491-1.789-.952 0-1.491.7-1.6 1.79h-.004ZM240.295 5.365c0-.87.734-1.458 1.841-1.458.543 0 1.037.123 1.456.403.241.158.338.308.338.442 0 .147-.109.344-.315.344-.097 0-.178-.075-.396-.21a2.024 2.024 0 0 0-1.118-.331c-.699 0-1.083.332-1.083.77 0 1.2 2.985.759 2.985 2.595 0 .932-.768 1.556-1.925 1.556-.591 0-1.13-.17-1.577-.49-.206-.134-.299-.268-.299-.402 0-.146.121-.344.326-.344.097 0 .179.087.361.198.385.256.746.39 1.204.39.711 0 1.181-.343 1.181-.868 0-1.272-2.975-.822-2.975-2.595h-.004ZM183.458 12.739c0 .134-.074.343-.276.343-.144 0-.408-.11-.757-.11-.481 0-.854.221-1.06.553-.252.39-.264.932-.264 1.37v.233h1.336c.217 0 .326.1.326.309s-.109.32-.326.32h-1.336v4.407c0 .221-.12.332-.361.332-.253 0-.373-.11-.373-.332v-4.408h-.831c-.217 0-.326-.11-.326-.32 0-.209.109-.308.326-.308h.831v-.22c0-.538.023-1.237.408-1.79.349-.49.951-.782 1.627-.782.264 0 .602.035.854.146.155.063.206.146.206.257h-.004ZM185.466 14.955c1.553 0 2.539 1.09 2.539 2.792 0 1.703-.997 2.805-2.551 2.805-1.553 0-2.551-1.102-2.551-2.793 0-1.69 1.01-2.804 2.563-2.804Zm0 4.972c1.083 0 1.771-.845 1.771-2.168 0-1.323-.699-2.192-1.783-2.192-1.083 0-1.77.857-1.77 2.18 0 1.323.687 2.18 1.782 2.18ZM189.775 20.16c0 .222-.12.332-.361.332-.253 0-.373-.11-.373-.332v-4.814c0-.222.109-.332.361-.332.253 0 .35.122.338.332v.758c.349-.723.94-1.114 1.759-1.114.276 0 .361.099.361.344 0 .268-.132.332-.435.344-.819.023-1.312.355-1.65 1.125v3.357ZM196.877 19.876c.396 0 .758-.122 1.072-.355.183-.135.252-.233.373-.233.178 0 .326.17.326.331 0 .162-.144.308-.287.415-.385.32-.917.502-1.507.502-1.456 0-2.504-1.114-2.504-2.793 0-1.678 1.036-2.78 2.504-2.78.528 0 1.072.146 1.491.478.206.146.303.28.303.402 0 .158-.132.356-.326.356-.109 0-.183-.099-.373-.233a1.811 1.811 0 0 0-1.083-.356c-1.072 0-1.748.858-1.748 2.106 0 1.248.676 2.156 1.759 2.156v.004ZM203.968 20.16c0 .222-.12.332-.361.332s-.373-.11-.373-.331v-2.927c0-.403-.058-.81-.276-1.114-.229-.32-.59-.478-1.083-.478-.745 0-1.262.38-1.53.822v3.697c0 .22-.12.331-.361.331-.252 0-.373-.11-.373-.331V12.36c0-.221.121-.332.373-.332s.361.11.361.332v3.464c.303-.478.905-.845 1.732-.845.648 0 1.215.209 1.541.687.23.343.35.821.35 1.457v3.038ZM205.712 13.683a.502.502 0 0 1-.517-.525c0-.304.218-.526.517-.526.299 0 .516.222.516.526a.504.504 0 0 1-.516.525Zm.361 6.477c0 .222-.121.332-.361.332-.253 0-.373-.11-.373-.332v-4.814c0-.221.12-.332.373-.332.252 0 .361.11.361.332v4.814ZM208.239 20.16c0 .222-.121.332-.361.332-.253 0-.373-.11-.373-.331V12.36c0-.221.12-.332.373-.332.252 0 .361.11.361.332v7.8ZM211.838 14.979c.528 0 .986.134 1.359.402v-3.025c0-.221.12-.332.373-.332.252 0 .361.11.361.332v7.8c0 .234-.121.332-.35.332-.24 0-.337-.098-.337-.28v-.344c-.42.443-.952.66-1.589.66-1.397 0-2.395-1.078-2.395-2.745s1.036-2.804 2.578-2.804v.004Zm.074.624c-1.146 0-1.88.821-1.88 2.144 0 1.323.723 2.157 1.794 2.157.517 0 .975-.198 1.371-.565v-3.282a1.99 1.99 0 0 0-1.289-.454h.004ZM216.098 20.16c0 .222-.12.332-.361.332-.252 0-.373-.11-.373-.332v-4.814c0-.222.109-.332.361-.332.253 0 .35.122.338.332v.758c.35-.723.94-1.114 1.759-1.114.276 0 .361.099.361.344 0 .268-.132.332-.435.344-.819.023-1.312.355-1.65 1.125v3.357ZM222.745 19.62c0 .122-.121.268-.327.414-.446.332-.986.502-1.627.502-1.588 0-2.527-1.067-2.527-2.781 0-1.714.928-2.804 2.36-2.804 1.433 0 2.218 1.003 2.218 2.373 0 .526-.156.589-.505.589h-3.336c.074 1.189.664 1.97 1.818 1.97.419 0 .854-.098 1.203-.366.194-.135.288-.245.408-.245.194 0 .315.181.315.343v.004Zm-3.732-2.28h3.095c0-1.054-.54-1.789-1.491-1.789-.952 0-1.491.7-1.6 1.79h-.004ZM224.574 15.346v.502c.314-.49.916-.87 1.771-.87.648 0 1.215.21 1.541.688.229.343.349.821.349 1.457v3.038c0 .22-.12.331-.361.331-.252 0-.372-.11-.372-.331v-2.927c0-.403-.062-.81-.276-1.114-.229-.32-.59-.478-1.083-.478-.746 0-1.266.38-1.53.822v3.697c0 .22-.121.331-.361.331-.253 0-.373-.11-.373-.331v-4.815c0-.221.109-.332.361-.332s.349.123.338.332h-.004ZM179.545 29.087c0-.92.733-1.533 1.914-1.533.567 0 1.157.147 1.518.392.252.17.361.32.361.49 0 .209-.144.489-.419.489-.109 0-.218-.075-.435-.198a2.079 2.079 0 0 0-1.072-.304c-.567 0-.889.257-.889.624 0 1.027 2.889.636 2.889 2.512 0 .98-.769 1.604-1.973 1.604-.601 0-1.118-.134-1.611-.466-.241-.158-.349-.308-.349-.478 0-.21.155-.49.434-.49.121 0 .206.087.396.198.373.233.711.367 1.146.367.578 0 .974-.268.974-.699 0-1.078-2.877-.687-2.877-2.512l-.007.004ZM184.851 26.468c-.384 0-.663-.28-.663-.675s.275-.66.663-.66a.64.64 0 0 1 .664.66c0 .38-.275.675-.664.675Zm.505 6.233c0 .28-.155.427-.493.427-.338 0-.516-.147-.516-.427v-4.677c0-.28.155-.426.493-.426.338 0 .516.146.516.427V32.7ZM187.632 28.024v.392c.314-.502.905-.846 1.72-.846.757 0 1.227.257 1.542.711.229.332.349.822.349 1.446v2.978c0 .28-.155.427-.493.427-.338 0-.517-.147-.517-.427v-2.816c0-.367-.062-.723-.24-.98-.206-.292-.528-.426-.975-.426-.637 0-1.083.308-1.336.699v3.527c0 .28-.155.426-.493.426-.338 0-.516-.146-.516-.426v-4.677c0-.28.155-.426.493-.426.338 0 .481.17.47.426l-.004-.008ZM194.722 32.286c.349 0 .664-.11.951-.308.155-.11.252-.197.384-.197.264 0 .447.233.447.466 0 .181-.144.343-.303.454-.396.304-.963.466-1.507.466-1.491 0-2.574-1.114-2.574-2.804 0-1.69 1.06-2.805 2.563-2.805.532 0 1.083.123 1.518.443.206.146.303.292.303.442 0 .233-.155.502-.435.502-.12 0-.206-.087-.396-.198-.276-.181-.567-.308-.951-.308-.975 0-1.554.747-1.554 1.9s.567 1.947 1.554 1.947ZM201.451 32.223c0 .17-.109.32-.35.478-.446.304-.997.466-1.661.466-1.612 0-2.575-1.066-2.575-2.793 0-1.726.94-2.84 2.419-2.84 1.386 0 2.276 1.016 2.276 2.402 0 .648-.229.723-.626.723h-3.071c.097 1.003.614 1.627 1.627 1.627.396 0 .784-.087 1.107-.308.182-.122.303-.21.419-.21.287 0 .435.258.435.455Zm-3.576-2.338h2.698c0-.893-.458-1.533-1.312-1.533-.796 0-1.289.577-1.386 1.533ZM204.702 26.99c-.105.047-.226.106-.365.106-.226 0-.365-.229-.365-.43 0-.218.151-.308.376-.43l2-1.032c.214-.106.423-.201.668-.201.423 0 .423.308.423.494v6.84c0 .277-.151.415-.454.415-.319 0-.47-.138-.47-.414v-6.3l-1.817.956.004-.004ZM209.14 25.955c-.272 0-.408-.138-.408-.43 0-.277.136-.415.408-.415h4.741c.287 0 .439.138.439.414 0 .17-.062.34-.136.541l-3.227 7.32c-.12.307-.213.509-.605.509-.319 0-.424-.107-.424-.277 0-.122.062-.26.121-.414l3.3-7.24h-4.209v-.008ZM217.057 28.806c1.394-.047 2.198-.6 2.198-1.556 0-.877-.652-1.45-1.802-1.45-.59 0-1.091.155-1.514.479-.256.17-.35.308-.501.308-.198 0-.38-.23-.38-.43 0-.186.198-.384.423-.538.485-.371 1.137-.632 2.046-.632 1.635 0 2.664.834 2.664 2.125 0 1.03-.695 1.785-1.849 2.018 1.317.202 2.12 1.047 2.12 2.28 0 1.508-1.242 2.496-2.982 2.496-.831 0-1.545-.245-2.057-.617-.241-.17-.381-.324-.381-.493 0-.186.182-.447.392-.447.136 0 .241.107.47.245.485.34 1.013.494 1.576.494 1.212 0 2.047-.664 2.047-1.726 0-.707-.381-1.339-1.452-1.631-.334-.091-.68-.123-1.181-.123-.408 0-.679.016-.679-.383s.318-.399.846-.415l-.004-.003ZM227.432 28.45c0 2.067-.877 3.682-2.679 4.744-.939.553-1.864.77-2.166.77-.319 0-.393-.244-.393-.43 0-.292.229-.324.532-.399 2.136-.6 3.347-1.848 3.712-3.511-.543.553-1.258.833-2.12.833-1.697 0-2.772-1.094-2.772-2.697 0-1.604 1.149-2.789 2.877-2.789.94 0 1.666.308 2.182.861.575.616.835 1.556.835 2.619h-.008Zm-.893.431c.016-.138.016-.26.016-.398 0-.861-.183-1.557-.544-2.019-.407-.51-1.029-.723-1.603-.723-1.123 0-1.938.802-1.938 2.003 0 1.2.757 1.987 2.058 1.987.773 0 1.452-.293 2.015-.85h-.004Z"/></g><defs><clipPath id="a"><path fill="#fff" d="M0 .969h244v33H0z"/></clipPath></defs></svg>