<svg xmlns="http://www.w3.org/2000/svg" fill="none" viewBox="0 0 40 41"><circle cx="19.992" cy="20.335" r="20" fill="#fff"/><g clip-path="url(#a)"><path fill="#000" d="M16.797 27.96h-3.524v-11.1h3.524v11.1Zm-1.764-12.613c-1.127 0-2.04-.913-2.04-2.015 0-.53.214-1.038.597-1.412a2.065 2.065 0 0 1 1.443-.585c.542 0 1.06.21 1.444.585.382.374.598.882.598 1.412 0 1.102-.915 2.015-2.042 2.015ZM29.988 27.96h-3.517v-5.403c0-1.288-.026-2.94-1.832-2.94-1.832 0-2.113 1.4-2.113 2.847v5.496h-3.52v-11.1h3.38v1.515h.049c.47-.872 1.62-1.793 3.335-1.793 3.567 0 4.222 2.297 4.222 5.281v6.097h-.004Z"/></g><defs><clipPath id="a"><path fill="#fff" d="M12.992 11.335h17v19h-17z"/></clipPath></defs></svg>