<svg xmlns="http://www.w3.org/2000/svg" fill="none" viewBox="0 0 40 41"><circle cx="19.992" cy="20.335" r="20" fill="#fff"/><g clip-path="url(#a)"><path fill="#000" d="M19.996 15.118c-2.555 0-4.616 2.104-4.616 4.713 0 2.608 2.06 4.712 4.616 4.712 2.556 0 4.617-2.104 4.617-4.712 0-2.609-2.061-4.713-4.617-4.713Zm0 7.777c-1.651 0-3.001-1.374-3.001-3.064s1.346-3.064 3.001-3.064c1.656 0 3.002 1.374 3.002 3.064s-1.35 3.064-3.002 3.064Zm5.882-7.97c0 .611-.482 1.1-1.076 1.1a1.086 1.086 0 0 1-1.077-1.1c0-.607.482-1.099 1.077-1.099.594 0 1.076.492 1.076 1.1Zm3.058 1.116c-.068-1.473-.398-2.777-1.454-3.851-1.053-1.075-2.33-1.411-3.773-1.485-1.487-.086-5.943-.086-7.43 0-1.438.07-2.715.406-3.772 1.48-1.057 1.075-1.382 2.38-1.454 3.852-.085 1.517-.085 6.066 0 7.584.068 1.472.397 2.776 1.454 3.85 1.057 1.076 2.33 1.412 3.773 1.486 1.486.086 5.942.086 7.429 0 1.442-.07 2.72-.406 3.773-1.485 1.052-1.075 1.382-2.379 1.454-3.851.084-1.518.084-6.063 0-7.58Zm-1.92 9.208a3.07 3.07 0 0 1-1.712 1.747c-1.185.48-3.998.37-5.308.37-1.31 0-4.126.106-5.307-.37a3.07 3.07 0 0 1-1.712-1.747c-.47-1.21-.361-4.081-.361-5.418 0-1.337-.105-4.213.361-5.418a3.07 3.07 0 0 1 1.712-1.748c1.185-.48 3.997-.369 5.307-.369 1.31 0 4.127-.106 5.308.37a3.07 3.07 0 0 1 1.712 1.746c.47 1.21.361 4.082.361 5.419 0 1.337.109 4.212-.361 5.418Z"/></g><defs><clipPath id="a"><path fill="#fff" d="M10.992 9.335h18v21h-18z"/></clipPath></defs></svg>